<svg xmlns="http://www.w3.org/2000/svg" viewBox="0 0 256 256"><path d="M0 0h256v256H0z" style="fill:#ff8a00;fill-opacity:1;stroke-width:5"/><g fill="none" stroke="#ff8a00" stroke-linecap="round" stroke-linejoin="round" stroke-width="16"><path d="M200 176V64a24 24 0 0 0-24-24H40M104 104h64M104 136h64" style="stroke:#fff;stroke-opacity:1" transform="translate(30.136 23.611)scale(.81554)"/><path d="M24 80s-8-6-8-16a24 24 0 0 1 48 0v128a24 24 0 0 0 48 0c0-10-8-16-8-16h112s8 6 8 16a24 24 0 0 1-24 24H88" style="stroke:#fff;stroke-opacity:1" transform="translate(30.136 23.611)scale(.81554)"/></g></svg>
